name kinematics_mean_var
datacolumns 19
datarows 43
range 0.0000000000 0.4786320000
endheader
time	q_pelvis_tx_mean	q_pelvis_tx_var	q_pelvis_ty_mean	q_pelvis_ty_var	q_pelvis_tilt_mean	q_pelvis_tilt_var	hip_flexion_r_mean	hip_flexion_r_var	knee_angle_r_mean	knee_angle_r_var	ankle_angle_r_mean	ankle_angle_r_var	hip_flexion_l_mean	hip_flexion_l_var	knee_angle_l_mean	knee_angle_l_var	ankle_angle_l_mean	ankle_angle_l_var
0.0000000000	0.0000000000	0.0000000000	0.0000000000	0.0000000000	0.0000000000	0.0000000000	0.3373721444	0.0096897583	-0.0692895713	0.0053478939	0.0003490659	0.0047047856	-0.1851794336	0.0207330231	-0.2419026343	0.0077685057	0.1256637061	0.0097241496
0.0113960000	0.0000000000	0.0000000000	0.0000000000	0.0000000000	0.0000000000	0.0000000000	0.3337942194	0.0099508916	-0.0957313095	0.0058688354	-0.0178023584	0.0052477204	-0.1881464934	0.0213967236	-0.2690425042	0.0080344215	0.1037598240	0.0105667061
0.0227920000	0.0000000000	0.0000000000	0.0000000000	0.0000000000	0.0000000000	0.0000000000	0.3302162945	0.0102120248	-0.1221730476	0.0063897768	-0.0359537826	0.0057906553	-0.1911135531	0.0220604240	-0.2961823741	0.0083003373	0.0818559419	0.0114092627
0.0341880000	0.0000000000	0.0000000000	0.0000000000	0.0000000000	0.0000000000	0.0000000000	0.3261147707	0.0101768111	-0.1528908425	0.0066894747	-0.0518362788	0.0057377737	-0.1907644872	0.0225849752	-0.3310016926	0.0087407684	0.0509636142	0.0122590234
0.0455840000	0.0000000000	0.0000000000	0.0000000000	0.0000000000	0.0000000000	0.0000000000	0.3220132470	0.0101415973	-0.1836086373	0.0069891725	-0.0677187750	0.0056848921	-0.1904154214	0.0231095264	-0.3658210112	0.0091811995	0.0200712864	0.0131087842
0.0569800000	0.0000000000	0.0000000000	0.0000000000	0.0000000000	0.0000000000	0.0000000000	0.3175626574	0.0099156778	-0.2150245638	0.0072719032	-0.0740019603	0.0053038157	-0.1851794336	0.0233763713	-0.4098033084	0.0098208199	-0.0178896248	0.0137428910
0.0683760000	0.0000000000	0.0000000000	0.0000000000	0.0000000000	0.0000000000	0.0000000000	0.3131120678	0.0096897583	-0.2464404904	0.0075546339	-0.0802851456	0.0049227394	-0.1799434459	0.0236432161	-0.4537856055	0.0104604403	-0.0558505361	0.0143769979
0.0797720000	0.0000000000	0.0000000000	0.0000000000	0.0000000000	0.0000000000	0.0000000000	0.3075270142	0.0095532897	-0.2748893572	0.0077544172	-0.0748746249	0.0048377663	-0.1685115393	0.0234029187	-0.5064072825	0.0110849670	-0.0992219680	0.0145031095
0.0911680000	0.0000000000	0.0000000000	0.0000000000	0.0000000000	0.0000000000	0.0000000000	0.3019419606	0.0094168211	-0.3033382240	0.0079542005	-0.0694641042	0.0047527933	-0.1570796327	0.0231626212	-0.5590289594	0.0117094936	-0.1425933999	0.0146292211
0.1025640000	0.0000000000	0.0000000000	0.0000000000	0.0000000000	0.0000000000	0.0000000000	0.2940879790	0.0095361245	-0.3248057738	0.0079697817	-0.0556760031	0.0048746403	-0.1391900078	0.0223026405	-0.6175847558	0.0118998795	-0.1851794336	0.0140298407
0.1139600000	0.0000000000	0.0000000000	0.0000000000	0.0000000000	0.0000000000	0.0000000000	0.2862339973	0.0096554279	-0.3462733236	0.0079853629	-0.0418879020	0.0049964872	-0.1213003830	0.0214426599	-0.6761405522	0.0120902654	-0.2277654674	0.0134304602
0.1253560000	0.0000000000	0.0000000000	0.0000000000	0.0000000000	0.0000000000	0.0000000000	0.2755874889	0.0099690620	-0.3587524277	0.0080637257	-0.0248709418	0.0049473829	-0.0977384381	0.0200830762	-0.7360053456	0.0116200122	-0.2633701841	0.0125511059
0.1367520000	0.0000000000	0.0000000000	0.0000000000	0.0000000000	0.0000000000	0.0000000000	0.2649409805	0.0102826961	-0.3712315319	0.0081420886	-0.0078539816	0.0048982786	-0.0741764932	0.0187234925	-0.7958701389	0.0111497591	-0.2989749009	0.0116717515
0.1481480000	0.0000000000	0.0000000000	0.0000000000	0.0000000000	0.0000000000	0.0000000000	0.2517637446	0.0105153476	-0.3747221904	0.0084142185	0.0087266463	0.0046600677	-0.0462512252	0.0171917695	-0.8521570073	0.0102326170	-0.3198315854	0.0111557296
0.1595440000	0.0000000000	0.0000000000	0.0000000000	0.0000000000	0.0000000000	0.0000000000	0.2385865087	0.0107479992	-0.3782128489	0.0086863485	0.0253072742	0.0044218569	-0.0183259571	0.0156600465	-0.9084438757	0.0093154749	-0.3406882700	0.0106397077
0.1709400000	0.0000000000	0.0000000000	0.0000000000	0.0000000000	0.0000000000	0.0000000000	0.2237512101	0.0106758658	-0.3742858581	0.0091366492	0.0391826417	0.0041412281	0.0119555054	0.0142058029	-0.9563531636	0.0084502395	-0.3428699316	0.0104612019
0.1823360000	0.0000000000	0.0000000000	0.0000000000	0.0000000000	0.0000000000	0.0000000000	0.2089159115	0.0106037324	-0.3703588673	0.0095869499	0.0530580093	0.0038605993	0.0422369679	0.0127515593	-1.0042624516	0.0075850042	-0.3450515931	0.0102826961
0.1937320000	0.0000000000	0.0000000000	0.0000000000	0.0000000000	0.0000000000	0.0000000000	0.1935570140	0.0103026028	-0.3614576881	0.0100058598	0.0637917842	0.0036498041	0.0728674963	0.0114994447	-1.0402162342	0.0072289674	-0.3306526268	0.0098667105
0.2051280000	0.0000000000	0.0000000000	0.0000000000	0.0000000000	0.0000000000	0.0000000000	0.1781981166	0.0100014733	-0.3525565089	0.0104247696	0.0745255591	0.0034390088	0.1034980246	0.0102473300	-1.0761700168	0.0068729305	-0.3162536605	0.0094507250
0.2165240000	0.0000000000	0.0000000000	0.0000000000	0.0000000000	0.0000000000	0.0000000000	0.1631010186	0.0097260991	-0.3408628029	0.0106044939	0.0820304748	0.0033183803	0.1322086908	0.0092738337	-1.0976375666	0.0071383132	-0.2915572515	0.0086250138
0.2279200000	0.0000000000	0.0000000000	0.0000000000	0.0000000000	0.0000000000	0.0000000000	0.1480039206	0.0094507250	-0.3291690969	0.0107842182	0.0895353906	0.0031977518	0.1609193570	0.0083003373	-1.1191051164	0.0074036959	-0.2668608426	0.0077993026
0.2393160000	0.0000000000	0.0000000000	0.0000000000	0.0000000000	0.0000000000	0.0000000000	0.1328195561	0.0092825762	-0.3159918611	0.0106044939	0.0945968455	0.0031487846	0.1861393647	0.0075866339	-1.1255628346	0.0081596345	-0.2384992423	0.0069157445
0.2507120000	0.0000000000	0.0000000000	0.0000000000	0.0000000000	0.0000000000	0.0000000000	0.1176351916	0.0091144274	-0.3028146252	0.0104247696	0.0996583003	0.0030998173	0.2113593724	0.0068729305	-1.1320205528	0.0089155731	-0.2101376419	0.0060321865
0.2621080000	0.0000000000	0.0000000000	0.0000000000	0.0000000000	0.0000000000	0.0000000000	0.1019272283	0.0089656979	-0.2886774583	0.0099377473	0.1030616923	0.0030901153	0.2326523893	0.0064390183	-1.1240793047	0.0099226383	-0.1822996404	0.0054408631
0.2735040000	0.0000000000	0.0000000000	0.0000000000	0.0000000000	0.0000000000	0.0000000000	0.0862192650	0.0088169684	-0.2745402913	0.0094507250	0.1064650844	0.0030804132	0.2539454062	0.0060051060	-1.1161380567	0.0109297035	-0.1544616388	0.0048495398
0.2849000000	0.0000000000	0.0000000000	0.0000000000	0.0000000000	0.0000000000	0.0000000000	0.0704240353	0.0087842525	-0.2601413250	0.0088121707	0.1093448776	0.0030804132	0.2712241658	0.0058846145	-1.0955431715	0.0119197101	-0.1292416311	0.0045780495
0.2962960000	0.0000000000	0.0000000000	0.0000000000	0.0000000000	0.0000000000	0.0000000000	0.0546288056	0.0087515366	-0.2457423587	0.0081736165	0.1122246709	0.0030804132	0.2885029254	0.0057641231	-1.0749482863	0.0129097167	-0.1040216234	0.0043065592
0.3076920000	0.0000000000	0.0000000000	0.0000000000	0.0000000000	0.0000000000	0.0000000000	0.0397062405	0.0089998760	-0.2319542576	0.0076547311	0.1151044642	0.0031096108	0.3024655594	0.0058711048	-1.0433578268	0.0137694689	-0.0826413401	0.0041602363
0.3190880000	0.0000000000	0.0000000000	0.0000000000	0.0000000000	0.0000000000	0.0000000000	0.0247836754	0.0092482153	-0.2181661565	0.0071358458	0.1179842574	0.0031388084	0.3164281934	0.0059780864	-1.0117673674	0.0146292211	-0.0612610567	0.0040139133
0.3304840000	0.0000000000	0.0000000000	0.0000000000	0.0000000000	0.0000000000	0.0000000000	0.0112573737	0.0096598144	-0.2058615853	0.0069181205	0.1211258501	0.0032280460	0.3279473664	0.0061978983	-0.9707521300	0.0152542199	-0.0449422282	0.0038620920
0.3418800000	0.0000000000	0.0000000000	0.0000000000	0.0000000000	0.0000000000	0.0000000000	-0.0022689280	0.0100714134	-0.1935570140	0.0067003952	0.1242674427	0.0033172837	0.3394665395	0.0064177103	-0.9297368925	0.0158792187	-0.0286233997	0.0037102706
0.3532760000	0.0000000000	0.0000000000	0.0000000000	0.0000000000	0.0000000000	0.0000000000	-0.0145734993	0.0104459558	-0.1832595715	0.0066293432	0.1279326342	0.0034610022	0.3489785839	0.0066598050	-0.8800822753	0.0163251786	-0.0186750230	0.0034837571
0.3646720000	0.0000000000	0.0000000000	0.0000000000	0.0000000000	0.0000000000	0.0000000000	-0.0268780705	0.0108204981	-0.1729621289	0.0065582912	0.1315978256	0.0036047207	0.3584906284	0.0069018997	-0.8304276581	0.0167711385	-0.0087266463	0.0032572436
0.3760680000	0.0000000000	0.0000000000	0.0000000000	0.0000000000	0.0000000000	0.0000000000	-0.0384845100	0.0111522265	-0.1647590814	0.0065866206	0.1355248164	0.0037762812	0.3658210112	0.0070188727	-0.7724827269	0.0170675465	-0.0049741884	0.0029451174
0.3874640000	0.0000000000	0.0000000000	0.0000000000	0.0000000000	0.0000000000	0.0000000000	-0.0500909495	0.0114839549	-0.1565560339	0.0066149500	0.1394518072	0.0039478418	0.3731513941	0.0071358458	-0.7145377958	0.0173639545	-0.0012217305	0.0026329911
0.3988600000	0.0000000000	0.0000000000	0.0000000000	0.0000000000	0.0000000000	0.0000000000	-0.0609992574	0.0118641174	-0.1505346480	0.0067294862	0.1433787981	0.0041616984	0.3771656514	0.0071211176	-0.6492624817	0.0173409711	-0.0020071286	0.0025664956
0.4102560000	0.0000000000	0.0000000000	0.0000000000	0.0000000000	0.0000000000	0.0000000000	-0.0719075652	0.0122442800	-0.1445132621	0.0068440223	0.1473057889	0.0043755551	0.3811799086	0.0071063893	-0.5839871677	0.0173179877	-0.0027925268	0.0025000000
0.4216520000	0.0000000000	0.0000000000	0.0000000000	0.0000000000	0.0000000000	0.0000000000	-0.0822050078	0.0127165588	-0.1408480706	0.0070194820	0.1509709803	0.0046247169	0.3814417080	0.0069896599	-0.5134758659	0.0167533032	-0.0050614548	0.0025000000
0.4330480000	0.0000000000	0.0000000000	0.0000000000	0.0000000000	0.0000000000	0.0000000000	-0.0925024504	0.0131888377	-0.1371828792	0.0071949416	0.1546361717	0.0048738787	0.3817035074	0.0068729305	-0.4429645642	0.0161886186	-0.0073303829	0.0025000000
0.4444440000	0.0000000000	0.0000000000	0.0000000000	0.0000000000	0.0000000000	0.0000000000	-0.1021017612	0.0137620058	-0.1359611487	0.0073294150	0.1578650308	0.0051880154	0.3784746483	0.0067723916	-0.3721914630	0.0149110532	-0.0082030475	0.0027042588
0.4558400000	0.0000000000	0.0000000000	0.0000000000	0.0000000000	0.0000000000	0.0000000000	-0.1117010721	0.0143351739	-0.1347394183	0.0074638883	0.1610938900	0.0055021521	0.3752457892	0.0066718526	-0.3014183618	0.0136334877	-0.0090757121	0.0029085176
0.4672360000	0.0000000000	0.0000000000	0.0000000000	0.0000000000	0.0000000000	0.0000000000	-0.1206895178	0.0149322241	-0.1366592804	0.0075092611	0.1635373509	0.0058490505	0.3694862026	0.0067291207	-0.2374520447	0.0118174805	-0.0068067841	0.0032671132
0.4786320000	0.0000000000	0.0000000000	0.0000000000	0.0000000000	0.0000000000	0.0000000000	-0.1296779634	0.0155292742	-0.1385791426	0.0075546339	0.1659808119	0.0061959488	0.3637266161	0.0067863887	-0.1734857276	0.0100014733	-0.0045378561	0.0036257088
